<svg xmlns="http://www.w3.org/2000/svg" viewBox="0 0 64 64" role="img" aria-labelledby="title">
  <title id="title">Triagebox contour mark</title>
  <rect width="64" height="64" rx="14" fill="#245c45"/>
  <g fill="none" stroke="#fffcef" stroke-width="2.4">
    <path d="M10 34c2-14 13-23 27-22 12 1 20 10 17 22-3 13-14 20-27 18C15 50 8 44 10 34Z"/>
    <path d="M17 34c1-9 9-15 18-14 8 1 13 6 11 14-2 8-9 12-17 11-8-1-13-5-12-11Z"/>
    <path d="M25 34c1-4 4-7 8-6 4 0 6 3 5 7-1 3-4 5-8 4-3 0-5-2-5-5Z"/>
  </g>
  <path d="M12 48c10-3 15-10 20-17 5-6 9-9 20-10" fill="none" stroke="#f2a36f" stroke-width="3.5" stroke-linecap="round"/>
  <circle cx="32" cy="31" r="3.5" fill="#f2a36f" stroke="#fffcef" stroke-width="1.5"/>
</svg>
